<?xml version="1.0" encoding="UTF-8" standalone="no"?>
<!-- Created with Inkscape (http://www.inkscape.org/) -->

<svg
   xmlns:dc="http://purl.org/dc/elements/1.1/"
   xmlns:cc="http://creativecommons.org/ns#"
   xmlns:rdf="http://www.w3.org/1999/02/22-rdf-syntax-ns#"
   xmlns:svg="http://www.w3.org/2000/svg"
   xmlns="http://www.w3.org/2000/svg"
   xmlns:sodipodi="http://sodipodi.sourceforge.net/DTD/sodipodi-0.dtd"
   xmlns:inkscape="http://www.inkscape.org/namespaces/inkscape"
   id="svg2"
   version="1.1"
   inkscape:version="0.48+devel r12701"
   width="850"
   height="1100"
   viewBox="0 0 850 1100"
   sodipodi:docname="horse_walking_toward.svg">
  <title
     id="title4066">horse walking toward</title>
  <metadata
     id="metadata8">
    <rdf:RDF>
      <cc:Work
         rdf:about="">
        <dc:format>image/svg+xml</dc:format>
        <dc:type
           rdf:resource="http://purl.org/dc/dcmitype/StillImage" />
        <dc:title>horse walking toward</dc:title>
        <dc:date>12/03/2013</dc:date>
        <dc:creator>
          <cc:Agent>
            <dc:title>edited by Paul Sherman</dc:title>
          </cc:Agent>
        </dc:creator>
        <dc:rights>
          <cc:Agent>
            <dc:title>PD</dc:title>
          </cc:Agent>
        </dc:rights>
        <dc:publisher>
          <cc:Agent>
            <dc:title>WPClipart</dc:title>
          </cc:Agent>
        </dc:publisher>
        <dc:subject>
          <rdf:Bag>
            <rdf:li>horse</rdf:li>
            <rdf:li>walking</rdf:li>
          </rdf:Bag>
        </dc:subject>
        <cc:license
           rdf:resource="http://creativecommons.org/publicdomain/zero/1.0/" />
      </cc:Work>
      <cc:License
         rdf:about="http://creativecommons.org/publicdomain/zero/1.0/">
        <cc:permits
           rdf:resource="http://creativecommons.org/ns#Reproduction" />
        <cc:permits
           rdf:resource="http://creativecommons.org/ns#Distribution" />
        <cc:permits
           rdf:resource="http://creativecommons.org/ns#DerivativeWorks" />
      </cc:License>
    </rdf:RDF>
  </metadata>
  <defs
     id="defs6" />
  <sodipodi:namedview
     pagecolor="#ffffff"
     bordercolor="#666666"
     borderopacity="1"
     objecttolerance="10"
     gridtolerance="10"
     guidetolerance="10"
     inkscape:pageopacity="0"
     inkscape:pageshadow="2"
     inkscape:window-width="832"
     inkscape:window-height="965"
     id="namedview4"
     showgrid="false"
     inkscape:zoom="0.66691529"
     inkscape:cx="635.20255"
     inkscape:cy="550"
     inkscape:window-x="771"
     inkscape:window-y="0"
     inkscape:window-maximized="0"
     inkscape:current-layer="svg2" />
  <path
     style="fill:#000000"
     d="m 632.5,1027.3506 c -13.53032,-2.5336 -23.49429,-7.7277 -29.74466,-15.5054 -1.72496,-2.1465 -4.18744,-4.1665 -5.47219,-4.489 -3.69542,-0.9275 -4.51653,-3.672 -3.79799,-12.69446 l 0.65,-8.16174 -4.47888,-7.41746 c -5.14274,-8.51687 -8.76719,-12.66708 -11.93649,-13.66797 -3.38967,-1.07049 -10.65109,-7.38613 -12.45997,-10.8371 -2.40606,-4.59024 -3.33976,-19.18562 -3.68337,-57.57747 -0.30703,-34.30338 -1.11553,-50 -2.5754,-50 -1.64795,0 -10.63312,27.4831 -11.50107,35.17851 -1.68817,14.96762 -6.85328,30.17932 -14.03066,41.32149 -6.40905,9.94942 -7.82033,14.09073 -7.08745,20.7977 2.05345,18.79212 1.9855,21.22011 -0.76183,27.22106 -1.44102,3.14761 -2.62004,6.54717 -2.62004,7.55457 0,1.00741 -1.72868,5.11553 -3.84151,9.12916 -2.11283,4.01363 -4.36176,8.87604 -4.99763,10.80535 -1.59748,4.84696 -8.2524,11.40056 -14.85914,14.63296 -6.64393,3.2506 -13.01977,3.389 -21.49863,0.4669 -8.38109,-2.8885 -12.32545,-6.0094 -18.61169,-14.72625 l -5.63825,-7.81826 -0.39114,-9.7382 c -0.37234,-9.27004 -0.24147,-10.04075 2.72221,-16.03159 2.84778,-5.75657 5.80579,-10.61007 10.31146,-16.91906 0.93262,-1.30588 1.96372,-3.906 2.29134,-5.77802 1.10039,-6.28781 7.56828,-13.17182 15.04058,-16.00826 l 4.84032,-1.83734 0.32801,-5.61873 c 0.52889,-9.0595 7.18116,-23.07285 16.91485,-35.63199 2.77073,-3.575 6.0321,-8.15291 7.2475,-10.17313 7.25045,-12.05159 10.32545,-32.10175 6.31408,-41.17012 -1.63515,-3.69654 -2.2782,-8.35848 -3.15862,-22.89912 -0.608,-10.04169 -1.56341,-21.18263 -2.12313,-24.75763 -1.28204,-8.18866 -7.61229,-21.51507 -16.02866,-33.74348 -12.4589,-18.10194 -43.15355,-64.49556 -49.1226,-74.24669 -4.10561,-6.70698 -9.30803,-17.03101 -10.61359,-21.06231 -1.06769,-3.29681 -1.56341,-3.6351 -6.88812,-4.7006 -7.46306,-1.4934 -15.56313,-2.07789 -38.73764,-2.79527 -16.68259,-0.51642 -34.04841,-2.43649 -36.66552,-4.05395 -0.48202,-0.2979 -1.52737,1.01638 -2.32302,2.92063 -3.04722,7.29303 -13.684,13.08291 -30.51146,16.60819 -5.775,1.20983 -12.975,3.02604 -16,4.03601 -3.025,1.00997 -7.65565,2.10045 -10.29032,2.42329 -7.34874,0.90047 -8.71061,1.97996 -8.7041,6.89936 0.003,2.31815 0.50192,6.00264 1.10856,8.18776 1.19382,4.30015 7.83367,14.29984 14.32659,21.576 13.98759,15.67492 20.12751,25.5029 25.11932,40.20767 3.52016,10.36962 3.63667,13.5714 0.77305,21.24339 -1.74564,4.67675 -4.29114,7.6448 -9.86853,11.50664 -3.33903,2.31199 -4.26786,3.71735 -5.38232,8.14377 -1.61528,6.41549 -3.53781,10.48449 -6.54372,13.84959 -1.22823,1.375 -3.8812,5.26602 -5.8955,8.64672 -2.0143,3.3807 -4.33301,6.40407 -5.15269,6.71861 -0.81969,0.31455 -1.49034,1.1988 -1.49034,1.96501 0,3.26285 11.85594,29.70998 18.23173,40.66966 5.02844,8.64363 7.07933,16.59397 7.44146,28.847 0.36354,12.30091 1.2224,14.4309 7.57056,18.7753 2.90065,1.98508 12.75477,16.32009 12.75837,18.55989 0.001,0.72479 1.75928,4.73024 3.90693,8.90098 2.14765,4.17075 4.38753,9.33142 4.97751,11.46817 1.066,3.86072 1.04094,3.91481 -4.01254,8.65926 -8.36278,7.85139 -19.97048,10.4781 -32.21271,7.2894 -3.16739,-0.825 -6.74943,-1.50168 -7.9601,-1.50374 -1.21067,-0.002 -3.72643,-1.01455 -5.59058,-2.25 -1.86415,-1.23544 -5.46415,-3.37126 -8,-4.74626 l -4.61063,-2.5 -0.30689,-5.98412 c -0.17891,-3.48871 -0.92437,-6.66643 -1.78764,-7.62034 -1.13494,-1.25409 -1.23656,-2.19195 -0.43512,-4.01587 0.57509,-1.30882 1.74068,-5.75467 2.59018,-9.87967 0.84951,-4.125 1.78509,-8.65643 2.07907,-10.06984 0.83454,-4.01229 -1.26069,-9.96578 -5.43732,-15.44986 -4.19717,-5.51106 -8.16944,-16.77499 -11.31271,-32.07881 -2.82571,-13.75768 -14.0188,-39.69491 -21.71506,-50.31929 C 249.42853,813.67195 248,810.894 248,809.90898 c 0,-0.98502 -0.41885,-2.04981 -0.93077,-2.36619 -0.51192,-0.31639 -2.41379,-4.50457 -4.22637,-9.30707 -1.81404,-4.80637 -6.24623,-13.22826 -9.85901,-18.73377 -12.53596,-19.10349 -13.34841,-20.93876 -13.28137,-30.00195 0.0414,-5.59803 0.73185,-9.91421 2.29957,-14.37546 3.1797,-9.04844 2.42436,-18.58503 -2.38599,-30.12454 -1.94882,-4.675 -3.86176,-8.5 -4.25099,-8.5 -0.38923,0 -1.91735,2.95158 -3.39583,6.55906 -4.58755,11.1936 -15.78471,26.61135 -27.62888,38.04313 -11.0337,10.64953 -28.79281,21.50532 -40.84036,24.9649 -13.92165,3.99775 -21.71865,7.25584 -27.43546,11.46431 -7.30026,5.37415 -10.21651,9.18462 -14.4102,18.82887 -3.921778,9.01892 -3.914143,9.00943 -6.57306,8.16553 -6.099764,-1.93599 -5.80565,-5.33778 1.255883,-14.5258 2.32489,-3.025 5.726577,-8.2 7.559297,-11.5 1.83272,-3.3 4.48438,-7.53554 5.89258,-9.41232 l 2.56035,-3.41231 -2.42469,0.73023 c -1.33359,0.40163 -4.1731,1.16562 -6.31004,1.69777 -10.802409,2.69001 -17.313409,7.77809 -26.508167,20.71501 -4.474852,6.29607 -6.400954,7.46261 -7.517494,4.55295 -0.829981,-2.16289 4.736132,-17.17082 9.502393,-25.62133 2.093926,-3.7125 3.492469,-6.73319 3.107873,-6.71265 -0.384596,0.0205 -3.399265,2.54822 -6.699265,5.61707 -3.3,3.06885 -9.825,8.09387 -14.5,11.1667 -8.780114,5.77108 -23.670965,11.90791 -25.19535,10.38353 -1.497641,-1.49764 2.868108,-5.77799 7.373331,-7.22909 5.855074,-1.88589 14.925139,-8.14975 19.768944,-13.6526 4.072751,-4.62689 15.785076,-24.53421 16.815075,-28.58042 0.620508,-2.43757 8.125797,-16.89017 11.999356,-23.10662 1.32427,-2.12524 4.227024,-5.83774 6.450564,-8.25 2.22354,-2.41226 3.73814,-4.38592 3.36578,-4.38592 -1.3321,0 -6.247405,2.89709 -7.522977,4.43406 -1.908901,2.30009 -5.786405,1.9867 -6.5859,-0.53229 -1.107158,-3.48835 5.274886,-11.29679 21.170207,-25.90177 29.05428,-26.69574 32.52924,-30.73622 39.99164,-46.5 3.78546,-7.9965 9.62756,-30.20623 9.17342,-34.8743 -0.21367,-2.19631 -1.26503,0.69201 -3.53588,9.71389 -3.85449,15.31351 -10.05424,29.97534 -15.17029,35.87633 -2.04281,2.35624 -4.7178,5.94011 -5.94441,7.96415 C 130.28699,657.91016 124.48789,663 121.9652,663 c -2.95627,0 -2.42299,-1.5729 2.64093,-7.7894 6.72036,-8.24994 9.81091,-15.8278 12.32107,-30.2106 4.94871,-28.3553 8.36145,-46.03822 10.64977,-55.18122 2.73011,-10.90817 2.95936,-13.88245 1.20522,-15.63659 -0.95708,-0.95708 -0.8206,-1.95539 0.63748,-4.66289 l 1.8553,-3.44508 -3.56357,-7.28711 c -4.7282,-9.66865 -5.40142,-12.6598 -6.79001,-30.16804 -1.64862,-20.78698 -0.0799,-41.97866 3.96916,-53.61907 1.05224,-3.025 3.5817,-10.675 5.62102,-17 2.28999,-7.10242 8.02677,-20.17102 15.0021,-34.17537 9.53463,-19.14264 12.20501,-23.63907 17.14028,-28.86109 7.75288,-8.20336 19.17453,-16.84637 28.37283,-21.47036 4.11027,-2.06623 9.4264,-5.09708 11.81361,-6.73521 6.60559,-4.53284 26.5128,-12.13877 37.15961,-14.19754 7.9496,-1.53721 10.76989,-1.6658 17.28116,-0.78793 4.5485,0.61324 9.11842,0.6969 11,0.20137 4.46567,-1.17608 10.74004,-1.72614 28.71884,-2.51775 15.18019,-0.66838 15.85634,-0.60875 32.77036,2.89028 9.4987,1.96501 21.54158,4.94093 26.76196,6.61317 13.26889,4.25041 15.37172,4.07837 25.84508,-2.1144 4.79488,-2.83516 9.16986,-5.99922 9.72218,-7.03123 0.55232,-1.03202 4.46836,-4.42476 8.70232,-7.53941 10.39411,-7.64629 19.40843,-16.40369 24.97204,-24.26031 2.53715,-3.58282 5.86495,-8.08922 7.39511,-10.01422 6.94478,-8.73681 10.19903,-13.76866 17.87878,-27.64488 10.5861,-19.1276 18.28603,-31.23493 27.83982,-43.77522 4.22364,-5.54395 12.04615,-16.19808 17.38335,-23.67585 6.47681,-9.07443 16.67007,-21.06696 30.65058,-36.06088 20.97316,-22.49346 31.71123,-32.02382 40.42487,-35.87827 2.55945,-1.13217 4.65355,-2.30567 4.65355,-2.60779 0,-3.74961 -9.11694,-27.768351 -15.07786,-39.722905 -4.39244,-8.808986 -4.64938,-10.127841 -2.23617,-11.478342 2.95619,-1.654368 5.94408,0.755397 15.79968,12.742614 10.8965,13.253239 20.5061,23.212393 25.33789,26.259553 2.79669,1.76373 3.72892,1.91128 5.88085,0.9308 1.67001,-0.76091 8.67057,-1.1275 20.17646,-1.05655 10.85035,0.0669 18.96375,-0.33196 21.11915,-1.03824 1.925,-0.63079 9.575,-1.37184 17,-1.64678 11.39005,-0.42177 14.6722,-0.18878 21,1.49075 l 7.5,1.99066 4.5,-4.29874 c 2.475,-2.36431 5.50259,-4.811288 6.72797,-5.437731 3.22146,-1.64688 21.54949,-16.386284 26.55779,-21.357776 2.34618,-2.328933 5.29733,-5.696923 6.5581,-7.484423 4.44417,-6.300823 7.2189,-3.440716 4.79893,4.946578 -4.30772,14.929972 -6.5742,25.308459 -7.60046,34.803422 -1.21179,11.21154 -3.35615,19.41835 -5.80882,22.23124 -1.13321,1.29965 -1.23072,2.0672 -0.39114,3.07883 2.04665,2.46606 5.94305,14.11477 6.58612,19.68993 0.73781,6.3965 -0.79014,10.32932 -4.20352,10.81955 -1.22373,0.17575 -2.22497,0.7858 -2.22497,1.35566 0,3.94091 3.71212,14.20818 6.75761,18.69076 3.46297,5.09704 3.5533,5.43352 1.80223,6.71393 -1.0139,0.74139 -2.30772,1.50273 -2.87515,1.69187 -0.56744,0.18915 0.88075,2.93269 3.2182,6.09677 2.33744,3.16408 4.89052,7.28611 5.6735,9.16005 2.30143,5.5081 1.82981,19.91958 -1.03014,31.4784 -1.99161,8.04932 -2.29239,10.91304 -1.59698,15.20506 0.47122,2.90837 1.37457,12.26295 2.00744,20.78795 1.48248,19.96958 2.1566,23.26584 7.46466,36.5 14.43551,35.99092 13.89937,34.32352 14.36799,44.68494 0.36388,8.04549 -0.0229,11.68499 -2.2851,21.5 -5.6096,24.33886 -6.24438,25.94936 -12.94291,32.83779 -6.04481,6.21617 -8.01107,7.2703 -19.56135,10.48701 -2.475,0.68927 -6.3,1.3075 -8.5,1.37383 -2.2,0.0663 -6.12447,1.166 -8.72106,2.44371 -4.29761,2.11474 -5.05195,2.20425 -8.41031,0.99791 -4.47141,-1.60614 -17.21685,-13.31544 -19.55794,-17.96797 C 694.96893,398.23501 691,387.82825 691,384.75508 c 0,-3.62332 -6.88761,-13.4137 -15.75857,-22.4 -7.97206,-8.07571 -13.56111,-12.36873 -14.66526,-11.26458 -0.23477,0.23477 -2.77792,8.29795 -5.65145,17.91817 C 652.0512,378.6289 648.61913,390.1 647.29791,394.5 644.45164,403.97877 637,435.52255 637,438.09239 c 0,0.98631 0.87666,3.28151 1.94813,5.10045 1.07147,1.81894 3.48735,7.58216 5.36861,12.80716 1.88127,5.225 5.553,14.9 8.1594,21.5 2.60641,6.6 5.61312,14.25 6.6816,17 2.63785,6.78918 5.84226,21.8373 5.84226,27.43564 0,4.07977 -2.73676,15.84092 -8.78661,37.7602 -1.09236,3.95772 -3.20011,9.13272 -4.68389,11.5 -12.0952,19.2971 -11.56301,16.81302 -13.45516,62.80416 -0.80668,19.60748 -4.87799,50.61451 -8.99424,68.5 -1.83494,7.97298 -8.69358,26.34819 -14.15085,37.912 -1.5802,3.3484 -4.34822,10.138 -6.15117,15.088 -3.22523,8.85489 -3.2789,9.28215 -3.32924,26.5 -0.0548,18.73741 -0.47598,22.59786 -3.6551,33.5 -1.70191,5.83635 -2.01169,9.48944 -1.86348,21.97531 0.29438,24.79944 4.95802,71.34035 8.60212,85.84505 2.04574,8.14267 8.04908,21.7487 11.00054,24.93172 2.70422,2.91638 14.3356,12.26879 18.71186,15.04559 1.50964,0.95788 3.37211,3.19526 4.13884,4.97197 0.76672,1.7767 3.80657,6.01815 6.75521,9.42545 22.36865,25.84801 22.50643,26.05191 21.44309,31.71991 -0.50378,2.6854 -1.8918,4.0675 -8.09484,8.0604 -4.11774,2.6507 -7.97144,5.4033 -8.56379,6.117 -1.66924,2.0113 -16.68501,4.6455 -21.42329,3.7582 z m 14.62427,-8.888 c 7.01666,-2.4652 14.88918,-7.668 15.54272,-10.2719 0.93328,-3.7185 -1.24521,-6.9282 -16.95786,-24.98543 -5.2286,-6.00878 -8.69106,-9.19054 -9.794,-9 C 632.31381,974.82741 604,1001.7384 604,1004.5392 c 0,0.838 0.7875,1.8128 1.75,2.1662 0.9625,0.3535 4.31474,2.5981 7.44941,4.9881 8.4438,6.438 13.01011,8.1533 21.92486,8.2359 4.47595,0.041 9.43117,-0.5642 12,-1.4668 z M 499.38237,1006.23 c 4.08571,-2.9128 9.70893,-11.72994 11.14591,-17.47651 0.66065,-2.642 0.56686,-2.72252 -2.4651,-2.11613 -1.73354,0.34671 -6.59748,0.041 -10.80875,-0.67937 -7.21305,-1.23383 -7.94403,-1.60385 -12.61128,-6.38387 -5.90364,-6.04628 -12.25199,-15.51668 -13.15383,-19.62275 C 471.13279,958.32812 470.46623,957 470.00807,957 c -0.45817,0 -3.00881,3.7125 -5.66809,8.25 -4.67721,7.98064 -4.83235,8.49917 -4.7519,15.88165 0.0691,6.34334 0.52689,8.38882 2.71169,12.11689 3.54418,6.0477 12.50599,14.06316 17.29685,15.47026 6.63496,1.9488 15.04526,0.8909 19.78575,-2.4888 z m 125.00953,-31.49891 7.1081,-6.76892 -3.22857,-2.73108 c -1.77571,-1.5021 -5.94048,-4.98109 -9.25503,-7.73109 -4.64537,-3.85414 -6.79791,-6.60421 -9.3927,-12 -4.41994,-9.19114 -8.42538,-21.64244 -9.16813,-28.5 -0.32764,-3.025 -1.23816,-10 -2.02336,-15.5 -0.7852,-5.5 -1.89679,-16.3 -2.47019,-24 -2.52701,-33.93443 -3.51623,-43.26836 -4.74155,-44.73969 -1.05352,-1.26502 -0.90608,-2.48353 0.83474,-6.89836 4.56634,-11.58051 6.28286,-23.15478 6.08939,-41.05996 -0.23534,-21.77932 -0.058,-22.45464 15.2707,-58.16054 8.56676,-19.95495 9.89222,-24.4487 12.57732,-42.64145 1.09587,-7.425 2.71614,-17.325 3.60059,-22 0.88445,-4.675 1.73812,-13.45 1.89705,-19.5 0.15892,-6.05 0.84303,-19.23309 1.52025,-29.29575 0.67722,-10.06267 0.99598,-18.53109 0.70836,-18.81872 -0.28763,-0.28762 -2.80419,1.11595 -5.59236,3.11905 -5.67462,4.07681 -9.4291,4.38231 -9.93778,0.80862 -0.21627,-1.51943 0.54668,-2.70914 2.5,-3.89836 13.3496,-8.12751 16.3739,-11.04286 22.42751,-21.6195 4.05581,-7.08615 5.9146,-12.10643 9.99694,-27 3.58677,-13.08562 5.007,-20.07601 4.9875,-24.54864 -0.0325,-7.46346 -3.02715,-20.70108 -6.65846,-29.43346 -1.44394,-3.47228 -4.1701,-10.13824 -6.05814,-14.81324 -1.88805,-4.675 -3.86032,-9.4 -4.38283,-10.5 -0.5225,-1.1 -1.89067,-4.57895 -3.04037,-7.73099 -3.592,-9.84796 -3.62631,-9.79872 -7.47739,10.73099 -5.20731,27.75966 -11.15424,46.5 -14.75598,46.5 -2.38794,0 -2.40023,0.0827 3.19582,-21.5 2.2817,-8.8 5.03945,-21.175 6.12835,-27.5 1.08889,-6.325 2.40083,-12.85 2.91542,-14.5 0.51458,-1.65 1.43519,-5.925 2.04579,-9.5 2.4487,-14.33699 9.37184,-41.99545 14.51786,-58 8.77503,-27.29103 11.15313,-34.53462 11.84537,-36.08047 0.54335,-1.21336 -1.799,-3.21195 -10.08419,-8.60426 -14.02053,-9.12508 -18.26642,-13.85951 -24.81906,-27.67485 -6.40769,-13.50971 -8.7155,-21.1475 -11.52439,-38.14042 -1.90982,-11.55382 -2.05429,-14.77991 -1.29867,-29 0.79971,-15.04994 0.96895,-16 2.85019,-16 1.91523,0 2.02572,0.86893 2.60679,20.5 0.87711,29.63241 3.79941,42.84406 13.93505,63 5.42403,10.78633 8.69662,14.25575 20.95816,22.21864 4.675,3.03603 11.65,7.57148 15.5,10.07877 12.41405,8.08456 20.33699,15.82539 25.96418,25.36738 1.0265,1.74063 2.84809,3.61209 4.04797,4.15879 1.82154,0.82995 2.28616,2.11362 2.81507,7.7776 0.74033,7.92804 5.55152,18.9735 11.3431,26.04137 3.69867,4.51374 12.46374,10.39177 15.32968,10.28039 0.90656,-0.0352 0.59174,-0.49569 -0.79577,-1.16386 -2.6906,-1.29569 -10.98046,-12.38736 -14.48618,-19.38222 -1.34431,-2.68228 -2.99191,-7.20271 -3.66133,-10.04541 -0.66942,-2.84271 -1.84172,-5.99271 -2.60512,-7 C 699.59559,377.56296 701.11432,374 705.57666,374 c 1.77183,0 4.82571,6.55316 6.9286,14.8677 2.61432,10.3367 8.09313,18.68914 16.32162,24.8823 3.51498,2.64555 11.19328,3.02508 15.17312,0.75 1.375,-0.78602 4.39497,-1.44508 6.71104,-1.46456 5.19323,-0.0437 7.12315,-1.92007 11.8975,-11.56734 2.49741,-5.04638 3.45668,-8.29352 3.39733,-11.5 -0.19049,-10.29122 0.11969,-13.44651 1.98272,-20.1695 1.2016,-4.33611 2.74452,-7.62379 3.98595,-8.49332 4.0779,-2.85628 1.99785,-11.78385 -9.53788,-40.93645 -5.47936,-13.84719 -8.77886,-23.6345 -9.04606,-26.83333 -1.64598,-19.70534 -3.5798,-38.03262 -4.10225,-38.87796 -0.67482,-1.09187 -1.63958,-14.55488 -1.73114,-24.15754 l -0.0572,-6 3.16689,0.13841 3.16688,0.13841 0.0104,-5.63841 c 0.0135,-7.2957 -1.29818,-11.3807 -5.82416,-18.13841 -2.026,-3.025 -6.71212,-10.53771 -10.41361,-16.69491 -4.7812,-7.95323 -7.15346,-11.0324 -8.19244,-10.63371 -0.94619,0.36309 -4.13993,-2.30394 -9.04712,-7.55509 C 716.19529,161.65233 712.34165,158 711.8032,158 c -1.32891,0 -0.0473,7.25512 2.36988,13.4163 2.5067,6.38919 2.13663,10.9687 -0.92147,11.40304 C 710.74153,183.17585 709,180.00342 709,175.07445 c 0,-5.88465 -16.56007,-24.86604 -23,-26.36292 -2.27613,-0.52906 -2.75549,-0.0124 -5.35316,5.76981 -3.84654,8.56209 -10.99565,16.31573 -19.84858,21.52697 -4.01404,2.36285 -8.87326,5.25677 -10.79826,6.43093 -1.925,1.17415 -5.3883,2.9631 -7.69622,3.97542 -6.97444,3.0592 -9.6712,0.006 -3.31239,-3.7505 1.61077,-0.95151 4.4452,-3.62769 6.29874,-5.94709 3.23411,-4.04693 7.24457,-11.52567 6.54532,-12.20575 -0.1845,-0.17944 -4.61045,3.45631 -9.83545,8.07945 -25.72693,22.7635 -25.21166,22.13591 -30.25636,36.85137 -1.784,5.20395 -3.69364,9.37086 -4.24364,9.25979 -0.55,-0.11106 -1.0087,-2.67693 -1.01933,-5.70193 -0.0106,-3.025 -0.4234,-6.35819 -0.91726,-7.40708 -1.12609,-2.39164 1.26689,-11.78223 6.13954,-24.09292 5.24851,-13.2603 9.45534,-21.12744 15.63368,-29.23636 C 632.0543,146.07181 636,137.44806 636,133.32892 636,130.59051 615.92463,112 612.9675,112 c -0.40383,0 -0.96959,0.9 -1.25725,2 -0.30057,1.1494 -1.36401,2 -2.50045,2 -1.43691,0 -3.30757,-2.33979 -6.84362,-8.5599 -5.88977,-10.36046 -14.34595,-22.793668 -15.03438,-22.105231 -0.27505,0.275047 1.5231,5.37472 3.9959,11.332608 2.47279,5.957883 5.05281,12.632523 5.73338,14.832523 2.67983,8.66281 11.02774,23.48193 16.64672,29.5511 4.49569,4.85588 5.46135,6.45719 4.66006,7.7275 -1.78119,2.82376 -3.21967,2.46139 -7.31378,-1.84241 l -4.00548,-4.21064 -3.63777,2.88723 c -2.00077,1.58797 -4.37065,3.33722 -5.26639,3.88722 -9.35617,5.74485 -34.30064,29.5934 -45.90012,43.88352 -3.96598,4.88594 -11.14543,13.1536 -15.95434,18.37258 -4.8089,5.21899 -11.19053,12.6964 -14.1814,16.61648 -2.99086,3.92008 -5.7115,7.35242 -6.04586,7.62742 -4.36212,3.58763 -30.22922,36.23974 -38.37836,48.4451 -3.17546,4.75603 -15.35788,18.32577 -21.96451,24.4658 -8.02126,7.45475 -32.27918,23.84057 -43.92607,29.67133 -4.01158,2.00831 -9.86245,5.22623 -13.00193,7.15093 -5.64855,3.46291 -5.77386,3.48848 -12,2.44821 C 383.33133,347.60318 377.125,345.94389 373,344.49405 365.33417,341.79969 347.09825,337.73217 334.52232,335.9116 327.29471,334.86529 304,335.67186 304,336.96843 c 0,0.83104 5.91386,2.69473 11.14952,3.51366 4.10366,0.64187 6.36844,2.72573 5.47964,5.04191 -0.79772,2.07883 -7.94595,1.15009 -20.62916,-2.68026 -13.30365,-4.01772 -28.11921,-5.5785 -36.80773,-3.87761 -10.84023,2.12212 -22.17313,6.56297 -37.92868,14.86254 -32.78312,17.26917 -38.94388,23.33758 -54.10033,53.2893 -17.44892,34.48202 -25.14437,59.38031 -25.15321,81.38203 -0.004,9.81294 1.66224,29.23849 3.08782,36 1.37085,6.50193 24.09542,52.37925 31.70134,64 3.23983,4.95 8.06534,12.375 10.72334,16.5 2.65801,4.125 5.6528,8.08802 6.6551,8.8067 1.00229,0.71869 1.82235,2.53139 1.82235,4.02822 0,1.49683 1.61561,6.08381 3.59024,10.19329 4.23769,8.81922 7.40855,16.90467 7.40926,18.89305 2.7e-4,0.78169 -0.76218,2.26401 -1.69434,3.29403 -1.42214,1.57145 -1.51852,2.46907 -0.59905,5.57874 1.69436,5.73039 12.01433,34.7165 15.73872,44.20597 6.86056,17.48023 8.12915,28.32239 4.32921,37 -2.77438,6.33559 -3.41735,15.52457 -1.42068,20.30328 0.87306,2.08953 4.18821,7.65756 7.36701,12.37341 7.36626,10.92809 9.38668,14.72856 13.81402,25.98445 2.4977,6.35008 4.80964,10.39171 7.5345,13.17148 2.16211,2.20568 3.93111,4.95316 3.93111,6.10551 0,1.15235 2.48834,7.05679 5.52964,13.12097 7.8894,15.73101 13.34032,30.27491 14.56578,38.86376 0.58251,4.08257 1.67643,9.03257 2.43094,11 0.75451,1.96743 1.88276,5.60214 2.50723,8.07714 0.67559,2.67765 3.37399,7.43942 6.66327,11.75843 l 5.52788,7.25842 -0.53743,6.74158 c -0.29558,3.70786 -1.19203,8.99157 -1.99211,11.74157 -1.70481,5.85975 -1.37253,6.94817 1.61549,5.29177 2.1771,-1.20687 9.90724,-2.24751 25.18931,-3.39102 4.4,-0.32923 8.4417,-1.01829 8.98155,-1.53123 1.31185,-1.24646 -2.98934,-9.31699 -6.02585,-11.30659 -3.79629,-2.48742 -8.54126,-7.84497 -10.09539,-11.39868 -1.17935,-2.69673 -1.23351,-4.01844 -0.28272,-6.89936 0.68969,-2.08976 0.93085,-5.87994 0.58311,-9.16425 -0.65733,-6.20828 -4.90469,-19.55767 -7.00593,-22.01956 -3.01572,-3.5333 -15.06444,-28.84135 -16.93953,-35.58108 -0.30603,-1.1 -1.90358,-5.21433 -3.5501,-9.14295 -3.56975,-8.51747 -10.16202,-34.39798 -10.17269,-39.93685 -0.0188,-9.74098 -5.4599,-30.95678 -8.95584,-34.9202 -1.59417,-1.80735 -1.78434,-4.98606 -1.97426,-33 -0.11559,-17.05 -0.42546,-32.35 -0.68859,-34 -1.80573,-11.32276 -1.49894,-22.29896 0.95029,-34 1.3815,-6.6 2.82444,-15.18696 3.20655,-19.08213 l 0.69474,-7.08212 -5.00693,-3.67542 c -9.46307,-6.94654 -26.46381,-25.73623 -32.84062,-36.29638 -15.12286,-25.04382 -21.63883,-46.68672 -21.28703,-70.70524 0.36264,-24.75877 4.7096,-47.6672 12.16481,-64.10842 4.95325,-10.92355 14.73221,-29.46903 19.09549,-36.21398 4.12965,-6.38378 8.55602,-11.71028 18.14894,-21.83966 1.65,-1.74227 4.00952,-4.36676 5.24339,-5.83221 2.56266,-3.04365 3.51552,-3.26233 5.22736,-1.19969 1.56555,1.88637 -0.76828,5.32511 -10.54356,15.53525 -9.984,10.42814 -16.88822,20.93241 -25.63384,39 -11.45817,23.67146 -14.91023,36.87513 -16.83334,64.38532 -1.20003,17.16655 -0.95266,21.11404 2.23178,35.61468 2.69735,12.2826 7.87779,25.0457 15.88893,39.14567 5.19667,9.14637 8.50877,13.46321 17.39006,22.66539 13.50514,13.9931 16.07013,15.95674 18.69892,14.31503 2.18704,-1.36582 3.37339,-0.82254 6.61418,3.02892 3.55857,4.22911 12.80656,8.26462 44.71612,19.5126 11.14476,3.92848 26.84543,7.61213 27.28606,6.40178 0.15734,-0.43217 0.91848,-1.63708 1.69143,-2.67758 1.92293,-2.58851 5.1343,-0.66215 4.75661,2.85327 -0.24414,2.27235 0.20597,2.56431 5.5,3.56764 9.56331,1.81244 32.04283,3.34008 44.2659,3.00818 6.325,-0.17174 15.4375,0.0897 20.25,0.58095 4.8125,0.49126 8.75,0.65781 8.75,0.37011 0,-0.28771 -1.04901,-2.94159 -2.33114,-5.89753 -2.04781,-4.72122 -4.35979,-14.49668 -6.14691,-25.99019 -1.04436,-6.7166 1.73015,-9.20715 4.6056,-4.13424 0.85733,1.5125 2.32606,6.35 3.26385,10.75 3.51116,16.47385 5.70531,21.83576 12.03627,29.41343 3.43824,4.1153 5.40684,8.58539 4.27807,9.71416 -0.29394,0.29395 -1.54122,-0.004 -2.77172,-0.6629 -2.00591,-1.07353 -2.15535,-1.00435 -1.44506,0.66898 0.43573,1.02648 1.35799,3.89133 2.04949,6.36633 1.62217,5.80608 1.39269,5.43412 33.74429,54.69481 3.18051,4.84286 10.63971,15.89572 16.576,24.56192 12.09957,17.6638 17.36299,27.43229 19.53368,36.253 1.17757,4.78512 2.36454,22.37531 2.57779,38.20131 0.0164,1.21608 0.88138,3.01608 1.92221,4 2.40383,2.27241 3.34978,8.71912 3.41727,23.28896 0.0496,10.70914 -0.16723,12.03905 -3.15299,19.33841 -4.73957,11.58693 -6.84244,15.363 -13.22859,23.75421 -3.17811,4.17594 -8.09721,12.01203 -10.93133,17.41352 -5.54184,10.56209 -5.39385,9.59021 -3.80602,24.99386 0.30711,2.97929 0.26783,3.00406 -5.69076,3.58847 -8.20652,0.80488 -9.5673,1.40773 -12.84856,5.69212 -2.57739,3.36535 -2.80437,4.2915 -2.38443,9.72917 0.62436,8.08471 3.84229,14.78135 10.56694,21.99024 6.29129,6.74433 10.93558,9.43524 16.35095,9.47378 13.46794,0.0958 21.26365,-12.61815 17.76555,-28.97378 -3.36896,-15.75183 -3.37756,-15.69429 3.95467,-26.45948 9.3928,-13.79055 14.97293,-28.42168 16.6058,-43.54052 1.37711,-12.75067 8.41864,-31.5742 18.51703,-49.5 2.16887,-3.85 4.45356,-8.125 5.07708,-9.5 0.62352,-1.375 2.30737,-4.975 3.74189,-8 2.39004,-5.03993 2.61009,-6.58744 2.63065,-18.5 0.0246,-14.28832 -0.94119,-18.62359 -7.24062,-32.5 -7.69269,-16.9455 -12.14581,-30.2242 -15.25882,-45.5 -3.46373,-16.99685 -5.09769,-27.99782 -6.01541,-40.5 -1.55869,-21.2343 -5.71262,-41.79454 -11.39875,-56.41908 C 526.85631,612.04494 523,599.70108 523,597.36904 c 0,-2.8589 2.37394,-4.84706 3.73898,-3.13137 0.55238,0.69428 2.44484,5.31233 4.20545,10.26233 1.76062,4.95 4.01482,11.025 5.00934,13.5 0.99452,2.475 2.8324,8.00459 4.08418,12.28798 1.25177,4.28339 2.59862,7.98741 2.993,8.23115 0.91147,0.56332 11.21771,-3.6125 16.48688,-6.68006 6.58397,-3.833 20.13295,-19.67214 25.82472,-30.18983 1.83025,-3.38208 4.41442,-9.62951 5.74259,-13.88318 1.79848,-5.75989 2.86154,-7.73805 4.16486,-7.75 2.32521,-0.0213 2.27087,3.12963 -0.20825,12.07585 -2.94686,10.6341 -10.67547,23.53905 -19.84697,33.13973 -6.95519,7.28066 0.007,6.23947 14.82455,-2.21707 7.6236,-4.35082 11.50293,-5.98588 14.23067,-5.99796 4.40618,-0.0195 5.29182,2.55831 1.22925,3.57795 -1.38641,0.34797 -5.23498,2.38696 -8.55238,4.5311 -9.03933,5.84241 -16.6296,9.36593 -24.4764,11.36232 l -7.04953,1.79356 -0.21507,6.60923 c -0.11828,3.63508 -0.66469,8.85923 -1.21424,11.60923 -0.54955,2.75 -1.4111,23.10852 -1.91456,45.24115 l -0.91539,40.24116 2.29866,5.75884 c 1.26426,3.16737 4.32281,10.48385 6.79678,16.25885 6.6722,15.57497 6.97415,16.93738 7.27596,32.83046 l 0.27698,14.58502 -6.38018,11.82667 -6.38018,11.82667 0.98954,7.21559 c 0.54425,3.96857 1.19974,8.79059 1.45663,10.71559 0.2569,1.925 0.49768,18.8 0.53508,37.5 0.0723,36.15592 1.56551,56.28156 4.55073,61.33512 0.88269,1.49428 4.74627,4.43483 8.58573,6.53456 4.48381,2.4521 7.3969,4.76783 8.14403,6.474 0.63975,1.46098 2.7484,5.0736 4.68588,8.02805 6.17606,9.41786 6.52281,10.3342 6.51973,17.22957 l -0.003,6.6013 8.39485,-7.6013 c 4.61716,-4.18072 11.59349,-10.64731 15.50295,-14.37021 z M 470.37465,630.53395 c -0.34908,-0.90971 1.18736,-5.7304 3.50167,-10.98671 C 476.14435,614.39606 478,608.97939 478,607.5102 c 0,-3.46905 5.90304,-12.29722 13.52069,-20.22063 5.79356,-6.02608 9.47931,-7.91368 9.47931,-4.85467 0,3.17637 -2.15293,6.67456 -7.2364,11.75802 -3.62514,3.62514 -6.10072,7.26621 -7.69993,11.32501 -6.27586,15.92819 -9.36003,22.10647 -12.13516,24.30951 -2.56604,2.03705 -3.00945,2.1252 -3.55386,0.70651 z M 619.34359,589.453 c -0.3265,-0.85085 -0.2893,-5.03587 0.0827,-9.30003 0.39961,-4.58099 0.26183,-8.84319 -0.33676,-10.41759 -1.65829,-4.36164 0.62728,-4.21087 2.87217,0.18946 2.29216,4.493 2.53942,8.64027 0.95548,16.02594 -1.08428,5.05581 -2.46,6.40407 -3.57355,3.50222 z M 571.5,570 c -1.09655,-1.77425 0.61587,-3.16659 8.07556,-6.56608 4.02234,-1.83304 10.27103,-5.20075 13.88598,-7.48379 5.90135,-3.72704 9.53846,-4.54908 9.53846,-2.15583 0,2.55899 -13.20995,11.54911 -21.6233,14.71589 -7.26385,2.73411 -8.95045,2.98851 -9.8767,1.48981 z m -153.09079,-5.56305 c -0.90018,-2.15444 -2.7016,-9.77161 -4.00315,-16.92705 -2.45512,-13.49737 -6.89802,-28.63357 -10.4463,-35.58877 -1.12821,-2.21148 -3.33666,-7.95426 -4.90768,-12.76175 C 394.55241,485.38985 393.56024,459 397.54222,459 c 1.82224,0 2.21831,2.09997 2.92341,15.5 0.62659,11.90789 4.14135,25.49221 9.57325,37 4.33586,9.18577 7.50442,21.43103 10.03104,38.76607 1.74437,11.96809 2.01826,16.04575 1.13695,16.92706 -0.8813,0.8813 -1.55524,0.21734 -2.79766,-2.75618 z M 584.60555,467.75 C 583.095,465.39068 581.94773,462.95485 572.00641,441 l -6.11291,-13.5 0.68422,-18 c 0.69097,-18.17788 1.53493,-22.78633 3.76492,-20.55846 0.75517,0.75446 1.22125,6.34057 1.34123,16.07496 0.24628,19.98261 0.74412,22.61672 6.80078,35.9835 2.86594,6.325 6.06682,13.51131 7.11307,15.96958 1.04626,2.45827 2.96037,5.72741 4.2536,7.26477 1.29323,1.53735 2.09485,3.46354 1.78139,4.28042 -0.88184,2.29802 -5.37961,1.80853 -7.02716,-0.76477 z M 370.3533,431.76631 c -1.40272,-2.26307 -1.3097,-15.48269 0.16807,-23.88788 C 372.62897,395.89099 380.62594,380 384.55089,380 c 1.59938,0 1.96729,3.05357 0.54822,4.55 -1.79852,1.89655 -8.91606,20.08808 -9.95746,25.45 -0.58752,3.025 -1.36871,9.22239 -1.73598,13.77197 -0.66038,8.18064 -1.52816,10.45342 -3.05237,7.99434 z m 371.27757,-38.46877 c -0.36632,-0.36632 0.73348,-2.10998 2.444,-3.87478 3.53061,-3.64267 3.42205,-4.13431 -2.6771,-12.12463 C 739.529,374.8499 738,372.15118 738,371.30096 c 0,-2.43581 -3.01255,0.48788 -4.72567,4.58629 -1.31849,3.15429 -1.23785,3.73036 1.17254,8.37628 2.04104,3.93402 2.33885,5.28974 1.40827,6.41101 -2.14101,2.57976 -5.2104,1.08328 -7.53678,-3.67454 -3.87931,-7.93383 -2.55397,-13.85619 4.53165,-20.25 4.73753,-4.27497 8.03072,-4.76485 10.08378,-1.5 1.71332,2.7246 8.55349,16.5536 9.40216,19.00868 0.81447,2.35615 -0.81508,6.40158 -3.03808,7.54219 -2.77914,1.42595 -6.92785,2.23582 -7.667,1.49667 z M 517.56862,370.11103 c -0.30218,-0.48893 -1.2425,-4.1838 -2.08961,-8.21081 -1.40135,-6.66181 -1.39395,-7.91132 0.0821,-13.86103 0.89229,-3.59656 2.40629,-7.43919 3.36443,-8.53919 0.95815,-1.1 3.05436,-4.22381 4.65825,-6.94181 1.60389,-2.71799 3.90653,-6.54299 5.11699,-8.5 2.99994,-4.85015 7.98993,-13.56923 11.0502,-19.30819 2.33037,-4.37016 4.24897,-6.09322 4.24897,-3.81591 0,3.75152 -11.31322,25.25704 -20.59599,39.15131 -3.52221,5.27197 -6.40393,10.67197 -6.40384,12 10e-5,1.32803 0.6751,5.94169 1.5,10.25257 0.82491,4.31088 1.49983,8.02338 1.49983,8.25 0,0.78003 -1.88279,0.4107 -2.43138,-0.47694 z M 714.47612,307.25 c -1.46877,-3.1625 -3.28513,-7.44696 -4.03636,-9.52102 -1.5755,-4.34978 -2.13299,-5.62394 -10.28727,-23.51176 -3.33028,-7.30553 -7.44329,-15.33977 -9.14002,-17.85386 -2.42288,-3.59001 -2.8363,-4.87071 -1.92628,-5.96721 2.30967,-2.78299 4.58207,-1.49614 7.6883,4.35385 C 704.39912,269.1095 720,306.68746 720,310.69348 c 0,4.17841 -2.7925,2.43763 -5.52388,-3.44348 z m -50.56536,1.45348 c -0.93489,-2.05186 -0.91546,-3.61505 0.0896,-7.20464 1.43212,-5.11505 4.05583,-7.49884 8.25356,-7.49884 3.33701,0 4.35795,-1.96168 2.69165,-5.17186 -1.83525,-3.53567 -9.93847,-15.84766 -13.22742,-20.09767 C 659.01436,265.23664 658.62381,262 660.90599,262 c 2.59908,0 17.74406,21.16463 20.91361,29.22608 1.7514,4.45454 0.49475,6.76517 -3.69204,6.78866 -4.2776,0.024 -7.25847,2.21804 -8.67103,6.38224 -0.72705,2.14333 -2.00364,4.5787 -2.83687,5.41194 -1.35329,1.35328 -1.64239,1.23531 -2.7089,-1.10544 z m -7.93851,-72.06202 c -9.91646,-2.13645 -20.98527,-9.8364 -20.95694,-14.57855 0.0243,-4.06229 1.0033,-4.76976 9.65891,-6.97973 11.35048,-2.89804 13.90205,-2.74829 17.42457,1.02258 1.59567,1.70816 2.90121,3.5334 2.90121,4.05608 0,0.52269 1.31093,3.59252 2.91317,6.82186 3.3008,6.65281 2.92165,7.98591 -2.81239,9.88845 -1.86958,0.62032 -3.44458,1.09014 -3.5,1.04404 -0.0554,-0.0461 -2.58827,-0.61972 -5.62853,-1.27473 z m 4.41223,-12.89763 -1.79169,-3.97326 -8.2831,0.43475 c -4.5557,0.23911 -8.52467,0.67633 -8.81993,0.97159 -2.3806,2.3806 5.52921,7.44787 14.51024,9.29571 5.13112,1.05573 5.52268,1.00127 5.83809,-0.81195 0.18595,-1.06897 -0.46818,-3.73155 -1.45361,-5.91684 z M 549,224.04327 c 0,-1.50148 15.79106,-22.5785 21.98912,-29.34984 C 577.10821,188.00837 583.93586,183 586.93018,183 c 3.18551,0 2.45175,2.67121 -1.07111,3.89928 -3.95488,1.37868 -14.81345,12.41524 -22.35019,22.71656 -3.17256,4.33629 -6.94742,9.16039 -8.38858,10.72022 -3.13026,3.38801 -6.1203,5.19915 -6.1203,3.70721 z m 126.61741,-6.5979 c -0.32811,-0.85505 0.31209,-4.11755 1.42267,-7.25 2.35798,-6.6508 1.92904,-11.56518 -1.54451,-17.69537 -1.24658,-2.2 -2.05555,-4.5625 -1.79771,-5.25 0.9474,-2.52611 3.33614,-1.12061 6.77557,3.98665 C 683.32692,195.47383 684,197.4167 684,201.41616 684,208.18294 680.29177,219 677.97203,219 c -0.96693,0 -2.02651,-0.69958 -2.35462,-1.55463 z M 334.19904,955.94027 C 338.24988,953.85471 342,949.69676 342,947.29095 c 0,-3.66844 -5.55661,-14.98329 -8.00045,-16.29119 -3.5182,-1.88288 -22.30727,0.30991 -33.99955,3.96795 -5.44826,1.70455 -5.50295,1.76093 -5.81327,5.99471 -0.35327,4.81965 1.48473,7.47218 8.10416,11.69559 7.4409,4.74753 25.46161,6.60124 31.90815,3.28226 z M 295.544,806.86137 c 0.65946,-2.07778 -4.18601,-11.32244 -7.5123,-14.33269 -2.42595,-2.19544 -2.46666,-1.7982 -0.55406,5.40572 0.8127,3.06108 1.96675,7.52156 2.56455,9.91217 1.04955,4.19719 1.15255,4.28717 2.99683,2.61812 1.05046,-0.95065 2.1777,-2.57215 2.50498,-3.60332 z m 7.11146,-10.65022 c 1.1855,-2.59113 3.17224,-7.63615 4.41498,-11.21115 1.83525,-5.27947 3.44908,-7.66026 8.59455,-12.67903 6.79523,-6.62792 7.07471,-7.45435 6.36471,-18.82097 -0.30178,-4.8314 -5.04551,-17.13514 -9.25322,-24 -3.79574,-6.19273 -16.28471,-21.79554 -21.21141,-26.5 -7.43297,-7.09767 -10.95455,-17.03488 -10.06863,-28.41168 0.53555,-6.87753 2.52691,-8.53241 11.6065,-9.64536 4.06838,-0.49869 10.54706,-1.99328 14.39706,-3.32129 3.85,-1.32802 10.375,-2.98696 14.5,-3.68653 9.47915,-1.60759 16.61144,-4.68587 21.87504,-9.44121 5.39592,-4.87489 5.27625,-6.21682 -0.62504,-7.00907 -4.34038,-0.5827 -10.44959,-2.50962 -38.25,-12.06454 -12.39715,-4.26086 -21.74153,-8.02095 -24.61938,-9.90658 C 276.81725,617.17892 276,617.6601 276,622.09292 c 0,2.2511 -0.87286,8.4386 -1.9397,13.75 -2.65191,13.20293 -3.95788,23.96906 -3.41555,28.15708 0.24927,1.925 0.69958,14.75 1.00069,28.5 0.48423,22.11212 0.75385,25.23103 2.33404,27 0.98262,1.1 2.58393,3.575 3.55848,5.5 0.97455,1.925 2.63323,4.66503 3.68596,6.08895 1.78362,2.41252 3.19941,6.5772 4.4702,13.14953 0.37549,1.94198 0.0607,2.91838 -1.08231,3.35699 -2.32864,0.89358 -2.09683,8.09677 0.39193,12.1787 2.54316,4.17117 2.5087,5.10071 -0.22659,6.11256 -1.88536,0.69745 -2.1773,1.45297 -1.92291,4.97637 0.24603,3.4074 1.72407,6.04575 8.22285,14.67803 4.9132,6.52616 7.92291,11.46126 7.92291,12.9914 0,3.71838 1.25749,2.91982 3.65546,-2.32138 z M 90.8062,766.62529 c 2.58159,-1.29329 7.1688,-2.92507 10.1938,-3.62617 5.76772,-1.33678 15.82782,-5.95707 19.88486,-9.1325 3.93019,-3.07614 6.11514,-2.46904 6.11514,1.69912 0,4.20146 -1.25478,6.82496 -4.86277,10.16711 -2.15587,1.99702 -2.27218,2.32006 -0.63723,1.76983 1.1,-0.37019 5.6,-1.80182 10,-3.18138 15.49742,-4.85902 21.4427,-7.50084 32.1689,-14.29445 19.56895,-12.3943 37.14331,-33.48178 45.02612,-54.02685 3.77073,-9.8277 3.762,-10.61659 -0.23802,-21.5 -3.42293,-9.31325 -7.42598,-23.30891 -12.87093,-45 -2.69784,-10.74742 -4.03564,-13.46283 -14.85685,-30.15578 -4.57945,-7.06432 -9.58161,-15.01705 -11.11591,-17.67273 -1.5343,-2.65567 -2.98138,-4.63675 -3.21574,-4.4024 -0.23435,0.23436 -1.09054,6.73725 -1.90263,14.45088 -3.38478,32.15029 -11.63668,53.46842 -27.39409,70.77044 -3.0102,3.30528 -7.86434,7.73267 -10.78697,9.83867 -2.92263,2.10599 -5.31388,4.18256 -5.31388,4.61459 0,0.43203 -4.95,5.16219 -11,10.51147 -6.05,5.34927 -11,10.11524 -11,10.59105 0,1.08006 6.94182,-1.32349 11.94696,-4.13653 4.3737,-2.45816 7.43559,-2.22341 7.83319,0.60056 0.19634,1.39448 -1.4039,3.32958 -5.34883,6.46807 -11.11065,8.83939 -18.438961,19.42557 -29.303958,42.33127 C 81.307313,749.25482 79,754.37934 79,754.69738 c 0,0.31804 3.763879,-3.03522 8.364177,-7.45169 9.766663,-9.37639 12.372742,-11.09484 13.271943,-8.75157 0.33354,0.8692 -0.12313,2.38654 -1.014839,3.37187 -2.413835,2.66725 -2.004223,3.07853 1.972489,1.98051 1.97658,-0.54576 3.85225,-0.73381 4.16817,-0.41789 0.99546,0.99546 -1.87667,5.29483 -4.46112,6.67799 -4.484395,2.39997 -17.34126,18.11387 -17.270411,21.10822 0.0179,0.75639 0.45247,0.56036 1.0562,-0.47645 0.564185,-0.9689 3.138001,-2.81979 5.719591,-4.11308 z m 184.27768,-32.92452 -2.05019,-3.20077 -0.0168,2.78212 c -0.009,1.53016 0.74706,4.45516 1.68072,6.5 l 1.69757,3.71788 0.36946,-3.29923 c 0.23905,-2.13469 -0.3542,-4.42902 -1.68072,-6.5 z M 556.28825,677.75 c 0.34198,-24.51549 0.17497,-36.75 -0.50165,-36.75 -0.55786,0 -2.65056,0.86036 -4.65045,1.91192 -1.99988,1.05155 -4.35388,2.13565 -5.23111,2.40911 -1.33631,0.41658 -1.4645,1.3633 -0.7905,5.83809 0.44245,2.93748 1.48341,9.84088 2.31325,15.34088 0.82983,5.5 1.52306,12.75237 1.5405,16.11639 0.0174,3.36401 1.15671,12.08663 2.53171,19.38361 1.375,7.29698 2.5452,14.6696 2.60045,16.38361 l 0.10045,3.11639 0.78736,-3.5 c 0.43304,-1.925 1.01804,-20.0375 1.29999,-40.25 z M 147.95277,612.38186 c 1.58574,-5.98502 3.39578,-14.48186 4.02231,-18.88186 0.62652,-4.4 1.3503,-9.41704 1.60839,-11.14897 0.25809,-1.73193 2.02459,-6.07985 3.92557,-9.66204 l 3.45632,-6.51306 -2.03993,-4.6116 c -2.32809,-5.26303 -3.50736,-5.21252 -4.18909,0.1794 -0.26121,2.06595 -2.51841,13.88127 -5.016,26.25627 -4.32776,21.44301 -6.65045,37.21515 -5.28417,35.88186 0.34839,-0.33997 1.93086,-5.51497 3.5166,-11.5 z M 457.47044,298.75 c 5.2989,-5.6375 12.70952,-14.75 16.46806,-20.25 8.44753,-12.36158 21.72987,-29.11259 32.51003,-41 4.48893,-4.95 9.2276,-10.575 10.53038,-12.5 1.30277,-1.925 4.87797,-6.21045 7.94488,-9.52321 9.20143,-9.93904 22.50787,-25.24951 31.87503,-36.67559 2.91435,-3.55493 9.16148,-9.80199 13.88251,-13.88236 4.72103,-4.08036 10.88656,-9.71474 13.70118,-12.52084 2.81462,-2.8061 7.14249,-6.38151 9.61749,-7.94536 2.475,-1.56384 5.47845,-3.7019 6.67434,-4.75123 l 2.17433,-1.90787 -3.59601,-6.64677 c -1.9778,-3.65572 -3.64882,-6.73934 -3.71338,-6.85248 -0.0645,-0.11315 -2.1248,0.48354 -4.57833,1.32596 -8.19205,2.81277 -19.49075,12.90275 -42.98143,38.38336 -14.49598,15.72396 -18.83271,20.95317 -28.06709,33.8432 -8.10359,11.31159 -15.07494,20.79587 -21.6826,29.49841 -2.34859,3.09318 -5.57529,7.76841 -7.17044,10.38938 -5.87153,9.6474 -12.95891,21.97627 -17.11095,29.7654 -4.30997,8.0854 -10.77968,17.79329 -20.99282,31.5 -6.81364,9.14436 -7.33529,10 -6.09659,10 0.53738,0 5.31252,-4.6125 10.61141,-10.25 z M 630.18217,175.70644 c 4.02481,-3.02933 11.25765,-9.37755 16.07298,-14.10715 4.81533,-4.72961 9.17354,-8.59929 9.6849,-8.59929 2.02528,0 6.05995,2.01168 6.05995,3.02149 0,0.58904 -1.59577,4.47941 -3.54615,8.64526 -1.95039,4.16585 -3.33201,7.78842 -3.07028,8.05015 0.79769,0.79769 9.10082,-5.36563 12.60467,-9.35628 4.03065,-4.59067 9.9488,-16.80222 11.50496,-23.73946 0.93603,-4.1727 1.5777,-5.18366 3.4647,-5.45865 2.59332,-0.37792 4.00393,1.22911 4.02679,4.58749 0.008,1.2375 0.63515,2.25 1.39274,2.25 0.75759,0 4.45054,3.43365 8.20655,7.63034 3.75602,4.19669 7.00348,7.10727 7.21659,6.46796 0.2131,-0.63931 -0.32985,-2.25713 -1.20656,-3.59516 -2.22985,-3.40319 -2.02445,-7.20241 0.46133,-8.53275 1.83064,-0.97974 2.97137,-0.13636 10.43482,7.71481 5.42665,5.70856 8.18516,8.02193 7.82803,6.5648 -0.30369,-1.2391 -0.0865,-2.25 0.48339,-2.25 2.85111,0 4.89135,2.00447 9.8259,9.65365 2.96137,4.59049 5.49416,8.3449 5.62841,8.34314 0.13426,-0.002 0.36165,-3.44114 0.50531,-7.64304 0.22669,-6.63076 -0.0705,-8.2058 -2.25,-11.92486 -3.30302,-5.63616 -3.26215,-8.20231 0.14424,-9.05726 2.2081,-0.5542 3.13012,-0.0941 5.4731,2.73095 3.34993,4.03921 3.68563,2.29018 0.78743,-4.10258 -2.69563,-5.94593 -5.25074,-8.52815 -11.99612,-12.1234 -3.08141,-1.64238 -8.5811,-5.79391 -12.22153,-9.22563 -5.40245,-5.09271 -8.05066,-6.75043 -14.40865,-9.01948 -7.48958,-2.67289 -19.77882,-5.06524 -21.27369,-4.14137 -2.01103,1.24289 -25.45466,2.75705 -39.73159,2.56616 -8.91859,-0.11925 -16.61673,0.0311 -17.10697,0.33407 -0.49025,0.30299 2.22239,3.66463 6.02807,7.47031 5.03723,5.03723 7.44317,6.78247 8.84482,6.41593 2.83056,-0.74021 3.19195,1.44098 1.53994,9.29438 -1.92435,9.14804 -4.4875,14.94011 -8.99282,20.3215 -5.07,6.05587 -11.02139,16.30242 -15.13786,26.06293 -1.90276,4.51163 -3.45957,8.49696 -3.45957,8.85631 0,0.35934 1.99448,-1.42807 4.43217,-3.97203 2.43769,-2.54395 7.72519,-7.10391 11.75,-10.13324 z m 110.91816,-53.21829 c 0.88018,-2.74348 1.92849,-8.81315 2.32957,-13.48815 0.40109,-4.675 1.56113,-12.094803 2.57789,-16.488451 1.01675,-4.393648 1.67762,-8.159472 1.4686,-8.368496 -0.20903,-0.209025 -1.46809,0.460778 -2.79791,1.488451 -15.60058,12.055952 -19.2782,15.034886 -22.33501,18.091696 -3.11752,3.11752 -3.49031,4.00723 -3.00341,7.16805 0.43048,2.79452 1.97781,4.9325 6.85792,9.4757 9.93444,9.2486 12.49859,9.61358 14.90235,2.1212 z M 740,845.55902 c 0,-0.24254 0.45,-0.7191 1,-1.05902 0.55,-0.33992 1,-0.14148 1,0.44098 0,0.58246 -0.45,1.05902 -1,1.05902 -0.55,0 -1,-0.19844 -1,-0.44098 z"
     id="path4064"
     inkscape:connector-curvature="0" />
</svg>
